<svg width="39" height="39" fill="none" xmlns="http://www.w3.org/2000/svg"><g clip-path="url(#clip0_238_3168)" fill="#fff"><path d="M38.62 7.351a.887.887 0 00-.644-.593L24.557 3.594a.885.885 0 00-.875.282l-3.693 4.227-3.617-4.226a.885.885 0 00-.879-.289L1.966 6.738A.89.89 0 001.503 8.2l3.919 4.394-3.858 4.415a.892.892 0 00.466 1.454l3.554.84v9.518a.89.89 0 00.584.832l13.494 4.962h.023a.887.887 0 00.285.06c.1-.002.198-.02.29-.054h.024l13.53-5.106a.893.893 0 00.578-.831v-9.426l3.345-.796a.89.89 0 00.475-1.437l-3.681-4.414 3.91-4.394a.887.887 0 00.18-.864zm-18.637 7.523l-9.5-2.273 9.5-2.221 9.5 2.221-9.5 2.273zM3.83 8.133l11.54-2.686 2.983 3.484-11.429 2.673L3.83 8.133zm3.098 5.45l11.389 2.725-3.098 3.437-11.343-2.677 3.052-3.485zm.434 6.138l7.964 1.88a.892.892 0 00.865-.271l2.898-3.219-.01 14.392-11.717-4.305v-8.477zm25.248 8.331L20.86 32.49l.01-14.275 2.653 3.128a.897.897 0 00.886.29l8.2-1.952v8.371zm3.314-10.99l-11.4 2.71-2.93-3.454 11.423-2.73 2.907 3.474zm-2.886-5.463L21.632 8.934l3.041-3.487L36.12 8.144l-3.08 3.455z"/><path d="M14.408 26.64l-4.282-1.572a.89.89 0 10-.616 1.672l4.285 1.574a.89.89 0 10.614-1.673h-.001z"/></g><defs><clipPath id="clip0_238_3168"><path fill="#fff" transform="translate(.97 .118)" d="M0 0h38v38H0z"/></clipPath></defs></svg>