<svg width="26" height="26" fill="none" xmlns="http://www.w3.org/2000/svg"><g clip-path="url(#clip0_238_3642)" stroke="#678C2E"><path d="M15.75 1.828a9.838 9.838 0 00-5.28-.407 10.222 10.222 0 00-4.804 2.392 10.6 10.6 0 00-3 4.53 10.578 10.578 0 00-.367 5.416l3.26-.726A7.095 7.095 0 015.805 9.4a7.11 7.11 0 012.012-3.038 6.856 6.856 0 013.222-1.604 6.598 6.598 0 013.542.273l1.17-3.203z" stroke-width="1.2" stroke-linejoin="round"/><path d="M15.767 3.075A10.355 10.355 0 113.35 13.845"/><circle cx="13.684" cy="13.218" r="4.056"/><circle cx="13.684" cy="13.218" r="1.571"/></g><defs><clipPath id="clip0_238_3642"><path fill="#fff" transform="translate(.698 .377)" d="M0 0h25v25H0z"/></clipPath></defs></svg>