<svg width="26" height="27" fill="none" xmlns="http://www.w3.org/2000/svg"><path d="M20.426 22.231c-1.944 0-3.897-.51-5.859-1.531a20.866 20.866 0 01-5.312-3.955 21.123 21.123 0 01-3.855-5.42c-.99-1.998-1.484-3.99-1.484-5.98 0-.337.109-.616.326-.838a1.1 1.1 0 01.82-.333H8.03c.277 0 .512.089.703.266.19.178.32.417.39.72l.625 2.849a1.96 1.96 0 01-.026.72c-.052.212-.156.39-.312.532l-2.448 2.45c.99 1.704 2.096 3.174 3.32 4.408A18.984 18.984 0 0014.49 19.3l2.344-2.503c.173-.195.369-.333.586-.413a1.21 1.21 0 01.69-.04l2.526.586c.277.053.503.186.677.4.173.213.26.47.26.772v2.93c0 .337-.108.62-.325.852a1.08 1.08 0 01-.82.346zM6.364 10.619l2.135-2.13a.234.234 0 00.065-.12.63.63 0 00.013-.12l-.572-2.69c-.018-.071-.044-.12-.079-.147a.208.208 0 00-.13-.04H5.244c-.052 0-.091.014-.117.04-.026.027-.04.067-.04.12-.016.693.088 1.46.313 2.304.226.843.547 1.771.964 2.783zm9.245 9.242a10.5 10.5 0 002.33.825c.843.196 1.61.311 2.305.346.052 0 .091-.013.117-.04.026-.026.04-.066.04-.12v-2.61a.219.219 0 00-.04-.133.233.233 0 00-.117-.08l-2.37-.479a.109.109 0 00-.104 0l-.104.053-2.057 2.238z" fill="#fff"/></svg>