<svg width="26" height="27" fill="none" xmlns="http://www.w3.org/2000/svg"><path d="M7.951 23.403c-.469 0-.864-.169-1.185-.506a1.712 1.712 0 01-.481-1.225c0-.48.164-.884.494-1.212.33-.329.72-.493 1.172-.493.469 0 .868.169 1.198.506.33.338.495.746.495 1.225 0 .462-.165.862-.495 1.199-.33.337-.73.506-1.198.506zm10.104 0c-.468 0-.863-.169-1.185-.506a1.712 1.712 0 01-.481-1.225c0-.48.16-.884.481-1.212a1.592 1.592 0 011.185-.493c.47 0 .864.169 1.185.506.321.338.482.746.482 1.225 0 .462-.16.862-.482 1.199a1.572 1.572 0 01-1.185.506zM6.441 6.17l2.89 6.18h7.266a.34.34 0 00.156-.04.2.2 0 00.104-.12l3.1-5.727c.034-.088.034-.16 0-.213a.174.174 0 00-.157-.08H6.44zm-.6-1.225H20.27c.434 0 .76.191.976.573.217.382.222.768.014 1.158l-3.204 5.913a2.095 2.095 0 01-.664.719 1.55 1.55 0 01-.872.266H8.81l-1.433 2.717c-.052.071-.056.155-.013.253a.226.226 0 00.222.146h12.135v1.226H7.769c-.66 0-1.133-.236-1.42-.706-.286-.47-.282-.981.014-1.532l1.666-3.116L4.097 4.04H2.144V2.842h2.708l.99 2.104z" fill="#fff"/></svg>