<svg width="26" height="27" fill="none" xmlns="http://www.w3.org/2000/svg"><path d="M12.873 4.44v17.578" stroke="#fff" stroke-width="1.2" stroke-linecap="round" stroke-linejoin="round"/><path d="M10.53 22.018h4.687" stroke="#fff" stroke-width="1.2" stroke-linejoin="round"/><path d="M5.842 9.233l14.062-3.195M2.717 17.224c0 1.768 1.953 2.397 3.125 2.397s3.125-.629 3.125-2.397l-3.125-7.99-3.125 7.99zm14.063-3.196c0 1.768 1.952 2.397 3.124 2.397 1.172 0 3.125-.63 3.125-2.397l-3.125-7.99-3.125 7.99z" stroke="#fff" stroke-width="1.2" stroke-linecap="round" stroke-linejoin="round"/><path transform="rotate(1.392 -710.83 133.34) skewX(.061)" stroke="#fff" stroke-width="1.2" d="M0-.6h5.941"/><path transform="rotate(1.392 -585.705 698.151) skewX(.061)" stroke="#fff" stroke-width="1.2" d="M0-.6h5.941"/></svg>