<svg width="34" height="33" fill="none" xmlns="http://www.w3.org/2000/svg"><path d="M20.448 7.292a7.292 7.292 0 015.76 5.76M20.448 1.46a13.125 13.125 0 0111.594 11.579m-1.459 11.637v4.375a2.916 2.916 0 01-3.179 2.917A28.859 28.859 0 0114.82 27.49a28.437 28.437 0 01-8.75-8.75A28.86 28.86 0 011.592 6.096a2.917 2.917 0 012.902-3.18h4.375a2.917 2.917 0 012.916 2.51 18.72 18.72 0 001.021 4.097 2.917 2.917 0 01-.656 3.077l-1.852 1.852a23.332 23.332 0 008.75 8.75L20.9 21.35a2.917 2.917 0 013.077-.656 18.67 18.67 0 004.098 1.02 2.917 2.917 0 012.508 2.961z" stroke="#000" stroke-width="2" stroke-linecap="round" stroke-linejoin="round"/></svg>