<svg width="39" height="33" fill="none" xmlns="http://www.w3.org/2000/svg"><path d="M29.442.94h-19l-9.5 11.084 19 20.584 19-20.584-9.5-11.083zm-2.77 11.876l-6.73 16.15-6.729-16.15h13.458zm-13.063-1.583l6.333-8.234 6.334 8.234H13.609zm13.775-1.109l-5.858-7.6h7.125l-1.267 7.6zm-14.883 0l-1.267-7.6h7.125l-5.859 7.6zm-1.425 1.109H3.712l6.175-7.205 1.188 7.205zm.395 1.583l6.334 15.2-14.013-15.2h7.68zm16.942 0h7.68L22.08 27.936l6.333-15.12zm.396-1.583l1.187-7.205 6.175 7.205H28.81z" fill="#fff"/></svg>