<svg width="39" height="39" fill="none" xmlns="http://www.w3.org/2000/svg"><path d="M7.84 30.755a16.5 16.5 0 01-3.254-4.944 14.376 14.376 0 01-1.186-5.7c0-2.254.404-4.348 1.211-6.282.807-1.934 2.018-3.708 3.632-5.322 1.211-1.245 2.75-2.254 4.617-3.027 1.866-.774 3.968-1.354 6.306-1.74 2.337-.388 4.869-.623 7.593-.707a97.444 97.444 0 018.526.126 99 99 0 01.227 8.551c-.05 2.741-.278 5.28-.681 7.618-.404 2.338-1 4.457-1.791 6.357-.79 1.9-1.808 3.456-3.052 4.667-1.615 1.648-3.364 2.875-5.247 3.683a14.956 14.956 0 01-5.953 1.21c-2.12 0-4.112-.378-5.979-1.135a14.515 14.515 0 01-4.97-3.355zm4.187.253c.908.639 1.96 1.126 3.153 1.463 1.194.336 2.397.504 3.608.504 1.749 0 3.447-.353 5.095-1.06 1.648-.706 3.145-1.765 4.49-3.178.841-.84 1.573-1.942 2.195-3.304.622-1.362 1.143-3.01 1.564-4.944.42-1.934.715-4.163.883-6.685.168-2.523.185-5.348.05-8.476a105.627 105.627 0 00-7.719.076c-2.421.118-4.616.37-6.584.757-1.967.387-3.7.891-5.196 1.513-1.497.622-2.7 1.404-3.607 2.346-1.447 1.446-2.523 2.994-3.23 4.642-.705 1.648-1.059 3.262-1.059 4.843 0 1.648.354 3.338 1.06 5.07.706 1.732 1.614 3.153 2.724 4.263a32.89 32.89 0 015.323-8.148c2.17-2.438 4.717-4.498 7.643-6.18-2.724 2.355-4.936 4.869-6.634 7.543-1.699 2.674-2.952 5.659-3.759 8.955z" fill="#fff"/></svg>