<svg width="26" height="26" fill="none" xmlns="http://www.w3.org/2000/svg"><g clip-path="url(#clip0_238_3651)"><path d="M20.353 3.173a.5.5 0 00-.707 0l-3.182 3.182a.5.5 0 00.707.707L20 4.234l2.828 2.828a.5.5 0 10.707-.707l-3.182-3.182zm.147 18.809V3.527h-1v18.455h1z" fill="#678C2E"/><path d="M12.46 10.592a2.811 2.811 0 11-5.621 0 2.811 2.811 0 015.622 0z" stroke="#678C2E"/><path d="M2.52 20.82v-.56c0-1.337.751-2.62 2.088-3.565 1.338-.946 3.151-1.477 5.042-1.477s3.705.531 5.042 1.477c1.337.945 2.088 2.228 2.088 3.565v.56" stroke="#678C2E" stroke-linecap="round" stroke-linejoin="round"/><path d="M2.009 21.246l15.261.03" stroke="#678C2E"/></g><defs><clipPath id="clip0_238_3651"><path fill="#fff" transform="translate(.698 .814)" d="M0 0h25v25H0z"/></clipPath></defs></svg>