<svg width="26" height="27" fill="none" xmlns="http://www.w3.org/2000/svg"><path d="M12.744 12.776c.452 0 .838-.164 1.159-.492.321-.329.482-.724.482-1.186 0-.461-.16-.856-.482-1.185a1.562 1.562 0 00-1.159-.492c-.451 0-.838.164-1.159.492a1.634 1.634 0 00-.481 1.185c0 .462.16.857.481 1.186.321.328.708.492 1.16.492zm0 9.295c2.274-2.077 3.993-4.052 5.156-5.926 1.164-1.873 1.745-3.484 1.745-4.833 0-2.131-.664-3.876-1.992-5.234-1.328-1.358-2.964-2.037-4.909-2.037-1.944 0-3.58.679-4.909 2.037-1.328 1.358-1.992 3.103-1.992 5.234 0 1.349.59 2.96 1.771 4.833 1.18 1.874 2.89 3.849 5.13 5.926zm0 1.598c-2.708-2.414-4.73-4.652-6.068-6.711-1.336-2.06-2.005-3.942-2.005-5.646 0-2.575.812-4.63 2.435-6.166C8.73 3.61 10.61 2.842 12.744 2.842c2.136 0 4.015.768 5.638 2.304 1.623 1.536 2.435 3.591 2.435 6.166 0 1.704-.668 3.586-2.005 5.646-1.337 2.06-3.36 4.297-6.068 6.711z" fill="#fff"/></svg>