<svg width="195" height="195" fill="none" xmlns="http://www.w3.org/2000/svg"><path d="M89.443 8.769c-2.828.353-4.592 2.085-4.292 4.482l.024.193 1.771-.221-.024-.194c-.191-1.533.675-2.457 2.7-2.71 2.337-.293 3.606.667 3.916 3.153.31 2.486-.68 3.743-3.018 4.036-2.024.253-3.094-.445-3.283-1.963l-.026-.209-1.772.222.026.208c.298 2.382 2.449 3.624 5.262 3.273 3.096-.387 4.897-2.668 4.508-5.779-.389-3.11-2.696-4.878-5.792-4.491zM74.748 11.41l1.386 4.107-5.6 1.89-1.386-4.107-1.52.513 3.213 9.522 1.52-.513L71 18.786l5.6-1.89 1.362 4.036 1.535-.518-3.213-9.522-1.535.518zM55.24 19.167c-2.745 1.605-3.502 4.411-1.919 7.117 1.583 2.706 4.4 3.422 7.145 1.817 2.719-1.59 3.489-4.404 1.906-7.11-1.583-2.707-4.413-3.415-7.132-1.824zm.788 1.346c2.059-1.204 3.603-.822 4.868 1.34 1.264 2.163.849 3.71-1.21 4.914-2.059 1.204-3.624.816-4.889-1.346-1.264-2.162-.828-3.704 1.23-4.908zM39.864 29.71c-2.352 2.14-2.51 5.042-.4 7.36 2.109 2.32 5.013 2.435 7.365.295 2.33-2.12 2.5-5.032.39-7.35-2.11-2.32-5.026-2.425-7.355-.305zm1.05 1.153c1.764-1.605 3.354-1.55 5.04.302 1.685 1.853 1.6 3.452-.165 5.057-1.764 1.605-3.375 1.55-5.061-.302-1.686-1.853-1.579-3.452.185-5.057zm-13.49 11.842c-1.766 2.388-1.372 4.227-.142 5.137 1.182.873 2.506.621 3.99-.78l1.792-1.717c.91-.801 1.442-1.042 2.141-.525.724.535.658 1.382-.43 2.853-1.24 1.677-2.171 1.902-3.16 1.17l-.157-.115-.954 1.29.072.054c1.58 1.168 3.556.968 5.304-1.396 1.855-2.508 1.386-4.347.216-5.212-1.327-.981-2.667-.48-3.916.705l-1.788 1.737c-.951.883-1.52 1.097-2.22.58-.76-.562-.696-1.355.446-2.899 1.31-1.773 2.212-1.983 3.177-1.27l.193.143.963-1.303-.072-.053c-1.701-1.257-3.672-.812-5.455 1.6zM17.037 59.939l1.306.641 2.829-5.763 2.585 1.27-2.73 5.56 1.293.635 2.73-5.561 2.531 1.243-2.83 5.763 1.307.64 3.543-7.216-9.021-4.43-3.543 7.218zm-6.069 17.447l3.362.701 5.563 5.727.408-1.953-3.014-3.035-1.08-1.068.024-.117 1.42-.562 3.979-1.591.404-1.939-7.347 2.973-3.392-.707-.327 1.571zM8.496 94.669c-.006 3.18 2.03 5.254 5.165 5.26 3.135.005 5.179-2.061 5.185-5.241.005-3.15-2.03-5.239-5.166-5.245-3.135-.005-5.179 2.076-5.184 5.226zm1.56.003c.004-2.385 1.116-3.523 3.621-3.519 2.505.005 3.628 1.147 3.624 3.532-.005 2.385-1.132 3.538-3.637 3.533-2.505-.004-3.613-1.161-3.608-3.546zm-.295 18.338c.605 2.954 2.506 4.31 5.18 3.763l5.76-1.18-.324-1.587-5.658 1.159c-1.983.406-2.987-.308-3.43-2.468-.441-2.16.2-3.21 2.185-3.616l5.657-1.159-.322-1.572-5.76 1.179c-2.675.548-3.89 2.542-3.288 5.481zm3.714 14.23l3.596-1.512.715 1.701c.488 1.162.364 1.718-.195 2.441l-1.936 2.555.72 1.715 2.032-2.676c.442-.576.717-1.083.608-1.883l.097-.041c.83 1.702 2.194 2.316 3.729 1.671 1.728-.726 2.178-2.445 1.294-4.547l-2.022-4.812-9.265 3.894.627 1.494zm7.924-3.331l1.39 3.305c.522 1.245.327 2.059-.807 2.536-1.161.488-1.851.046-2.374-1.199l-1.39-3.305 3.181-1.337zm4.811 27.014c1.259 1.643 2.795 1.921 4.164.872 1.048-.803 1.275-2.036.39-3.512l.083-.064c1.073 1.105 2.177 1.091 3.118.37 1.262-.967 1.262-2.422.094-3.946l-3.421-4.465-7.978 6.113 3.55 4.632zm4.249-8.586l2.336 3.048c.684.893.658 1.574-.092 2.149s-1.442.387-2.126-.506l-2.309-3.012 2.191-1.679zm-3.25 2.491l2.463 3.215c.72.94.729 1.69-.105 2.329-.869.666-1.582.475-2.312-.477l-2.463-3.215 2.417-1.852zm7.752 16.186l7.057-7.155-1.153-1.138-7.057 7.156 1.153 1.137zm5.172 4.991l2.5-3.375 2.471 1.83-.173 5.098 1.543 1.143.218-6.167 5.775-1.901-1.543-1.143-4.916 1.698-2.447-1.812 2.553-3.447-1.302-.965-5.98 8.077 1.301.964zm20.45 12.8l.632-1.311-5.783-2.788 1.25-2.594 5.58 2.69.626-1.297-5.58-2.691 1.225-2.54 5.783 2.789.632-1.311-7.242-3.492-4.365 9.053 7.242 3.492zm20.137 3.252c.99.18 1.942-.363 2.147-1.484.204-1.122-.496-1.966-1.485-2.146-.988-.181-1.941.362-2.146 1.484-.204 1.122.496 1.966 1.485 2.146zm23.486 4.842c2.836-.289 4.638-1.981 4.392-4.384l-.019-.194-1.776.182.02.194c.157 1.537-.731 2.442-2.76 2.649-2.343.24-3.59-.749-3.845-3.241-.255-2.492.765-3.727 3.108-3.966 2.029-.208 3.083.514 3.239 2.036l.021.209 1.776-.182-.021-.209c-.245-2.387-2.367-3.678-5.187-3.39-3.104.317-4.956 2.557-4.637 5.676.319 3.119 2.586 4.938 5.689 4.62zm14.752-2.309l-1.293-4.137 5.64-1.764 1.294 4.138 1.532-.479-2.999-9.592-1.532.479 1.271 4.066-5.641 1.763-1.271-4.066-1.546.484 2.999 9.592 1.546-.484zm19.676-7.315c2.78-1.544 3.6-4.332 2.078-7.073-1.521-2.741-4.321-3.52-7.102-1.976-2.754 1.529-3.586 4.324-2.065 7.065 1.522 2.741 4.335 3.513 7.089 1.984zm-.757-1.364c-2.085 1.157-3.621.74-4.837-1.45-1.216-2.19-.765-3.727 1.32-4.885 2.086-1.157 3.641-.734 4.857 1.456 1.216 2.19.745 3.721-1.34 4.879zm16.367-8.834c2.4-2.087 2.623-4.984.566-7.35-2.057-2.365-4.958-2.546-7.357-.46-2.377 2.067-2.612 4.975-.555 7.34 2.057 2.366 4.969 2.537 7.346.47zm-1.023-1.177c-1.8 1.565-3.389 1.476-5.032-.415-1.644-1.89-1.522-3.487.277-5.052 1.8-1.565 3.41-1.474 5.054.416 1.643 1.89 1.5 3.486-.299 5.051zm13.752-11.536c1.819-2.348 1.467-4.195.257-5.132-1.162-.9-2.492-.678-4.007.69l-1.829 1.676c-.928.781-1.465 1.009-2.153.477-.712-.552-.626-1.396.494-2.843 1.277-1.648 2.213-1.853 3.186-1.1l.154.12.983-1.269-.071-.055c-1.554-1.203-3.533-1.048-5.334 1.276-1.91 2.466-1.483 4.315-.333 5.206 1.304 1.011 2.656.54 3.931-.616l1.827-1.697c.97-.861 1.543-1.062 2.231-.529.747.578.666 1.369-.51 2.887-1.35 1.743-2.256 1.933-3.205 1.198l-.19-.147-.992 1.281.071.055c1.672 1.295 3.653.894 5.49-1.478zm10.771-16.993l-1.291-.67-2.958 5.698-2.556-1.327 2.854-5.498-1.278-.664-2.854 5.498-2.503-1.299 2.958-5.698-1.291-.67-3.705 7.135 8.92 4.631 3.704-7.136zm6.46-17.309l-3.346-.777-5.433-5.85-.451 1.943 2.945 3.102 1.055 1.092-.027.116-1.432.53-4.013 1.502-.448 1.929 7.412-2.807 3.375.783.363-1.563zm2.86-17.221c.077-3.179-1.912-5.298-5.046-5.374-3.134-.076-5.224 1.944-5.301 5.123-.076 3.149 1.912 5.283 5.046 5.359 3.135.076 5.225-1.959 5.301-5.108zm-1.559-.038c-.058 2.385-1.196 3.497-3.7 3.436-2.504-.061-3.601-1.228-3.543-3.612.058-2.384 1.21-3.511 3.715-3.45 2.504.06 3.586 1.242 3.528 3.626zm.706-18.324c-.539-2.967-2.408-4.365-5.094-3.878l-5.786 1.05.289 1.593 5.682-1.03c1.993-.362 2.98.374 3.374 2.543.393 2.17-.273 3.205-2.265 3.567l-5.682 1.03.286 1.58 5.786-1.05c2.686-.487 3.945-2.453 3.41-5.405zm-3.395-14.309l-3.628 1.43-.676-1.717c-.462-1.172-.326-1.726.249-2.436l1.993-2.51-.682-1.731-2.091 2.63c-.454.566-.741 1.065-.65 1.868l-.098.039c-.791-1.72-2.141-2.365-3.69-1.755-1.745.688-2.233 2.396-1.397 4.517l1.914 4.856 9.35-3.684-.594-1.508zm-7.996 3.15l-1.314-3.335c-.495-1.256-.282-2.065.862-2.516 1.172-.462 1.852-.004 2.347 1.251l1.315 3.336-3.21 1.265zm-4.202-27.116c-1.222-1.67-2.751-1.983-4.144-.965-1.065.78-1.32 2.006-.468 3.502l-.085.062c-1.048-1.129-2.152-1.14-3.109-.44-1.283.939-1.316 2.393-.183 3.943l3.321 4.54 8.112-5.932-3.444-4.71zm-4.441 8.488l-2.267-3.1c-.664-.907-.623-1.588.14-2.146.763-.558 1.451-.354 2.115.554l2.24 3.063-2.228 1.63zm3.305-2.417l-2.39-3.27c-.7-.956-.691-1.706.157-2.325.884-.647 1.592-.44 2.301.529l2.39 3.269-2.458 1.797zm-7.387-16.36l-7.216 6.995 1.128 1.163 7.216-6.995-1.128-1.163zm-5.058-5.105l-2.575 3.32-2.429-1.886.287-5.093-1.517-1.177-.356 6.16-5.817 1.771 1.517 1.177 4.953-1.587 2.406 1.867-2.63 3.39 1.28.992 6.161-7.94-1.28-.993zM136.88 17.555l-.661 1.296 5.719 2.917-1.309 2.566-5.518-2.816-.655 1.283 5.518 2.815-1.281 2.512-5.719-2.917-.661 1.296 7.162 3.654 4.567-8.952-7.162-3.654zm-20.06-3.701c-.984-.202-1.949.32-2.178 1.436-.23 1.117.451 1.977 1.435 2.179.985.202 1.95-.32 2.179-1.436.23-1.117-.451-1.976-1.436-2.179z" fill="#fff"/></svg>