<svg width="36" height="36" fill="none" xmlns="http://www.w3.org/2000/svg"><g clip-path="url(#clip0_48_59328)" stroke="#41591C" stroke-linecap="round" stroke-linejoin="round"><path d="M32.85 10.45a3.892 3.892 0 00-2.715-2.8c-2.408-.588-12.04-.588-12.04-.588s-9.632 0-12.04.644a3.892 3.892 0 00-2.716 2.8 40.6 40.6 0 00-.644 7.405c-.016 2.502.2 5 .644 7.462a3.892 3.892 0 002.716 2.688c2.408.645 12.04.645 12.04.645s9.632 0 12.04-.645a3.892 3.892 0 002.716-2.8c.437-2.425.653-4.885.644-7.35.016-2.501-.2-5-.644-7.462v0z"/><path d="M14.945 22.49l8.05-4.578-8.05-4.578v9.155z"/></g><defs><clipPath id="clip0_48_59328"><path fill="#fff" transform="translate(.595 .762)" d="M0 0h35v35H0z"/></clipPath></defs></svg>