<svg width="36" height="36" fill="none" xmlns="http://www.w3.org/2000/svg"><g clip-path="url(#clip0_48_59320)"><path d="M33.297 17.168a14.156 14.156 0 01-1.52 6.418 14.357 14.357 0 01-12.837 7.94 14.155 14.155 0 01-6.419-1.521l-9.628 3.21 3.21-9.629a14.155 14.155 0 01-1.52-6.418A14.358 14.358 0 0112.52 4.33a14.154 14.154 0 016.419-1.52h.844a14.324 14.324 0 0113.513 13.513v.845z" stroke="#41591C" stroke-linecap="round" stroke-linejoin="round"/><path d="M19.79 13.62a3.397 3.397 0 012.683 2.684m-2.684-5.402a6.115 6.115 0 015.402 5.395m-.68 5.422v2.038a1.359 1.359 0 01-1.48 1.359 13.444 13.444 0 01-5.864-2.086 13.25 13.25 0 01-4.077-4.077 13.447 13.447 0 01-2.085-5.89 1.36 1.36 0 011.352-1.481h2.038a1.359 1.359 0 011.359 1.168c.086.653.245 1.293.475 1.91a1.359 1.359 0 01-.305 1.433l-.863.863a10.87 10.87 0 004.076 4.076L20 20.17a1.359 1.359 0 011.434-.306c.616.23 1.256.39 1.909.475a1.359 1.359 0 011.168 1.38z" fill="#41591C"/></g><defs><clipPath id="clip0_48_59320"><path fill="#fff" transform="translate(.595 .762)" d="M0 0h35v35H0z"/></clipPath></defs></svg>