<svg width="36" height="36" fill="none" xmlns="http://www.w3.org/2000/svg"><g clip-path="url(#clip0_48_59324)"><path d="M32.754 15.896a13.71 13.71 0 01-1.473 6.217 13.906 13.906 0 01-12.434 7.69 13.71 13.71 0 01-6.217-1.473l-9.325 3.108 3.108-9.325a13.71 13.71 0 01-1.472-6.217 13.906 13.906 0 017.69-12.434 13.71 13.71 0 016.216-1.473h.818a13.874 13.874 0 0113.089 13.089v.818z" stroke="#41591C" stroke-linecap="round" stroke-linejoin="round"/><path d="M24.704 20.04v2.014a1.343 1.343 0 01-1.463 1.343 13.283 13.283 0 01-5.793-2.061 13.09 13.09 0 01-4.028-4.027 13.284 13.284 0 01-2.06-5.82 1.342 1.342 0 011.335-1.464h2.014a1.342 1.342 0 011.343 1.155c.085.644.242 1.277.47 1.886a1.342 1.342 0 01-.303 1.416l-.852.853a10.74 10.74 0 004.027 4.027l.853-.852a1.344 1.344 0 011.416-.302 8.622 8.622 0 001.886.47 1.342 1.342 0 011.155 1.363z" fill="#41591C"/></g><defs><clipPath id="clip0_48_59324"><path fill="#fff" transform="translate(.595 .762)" d="M0 0h35v35H0z"/></clipPath></defs></svg>