<svg width="26" height="26" fill="none" xmlns="http://www.w3.org/2000/svg"><path d="M23.47 11.31a9.792 9.792 0 01-1.051 4.441 9.933 9.933 0 01-8.882 5.493 9.793 9.793 0 01-4.44-1.052l-6.661 2.22 2.22-6.661a9.793 9.793 0 01-1.052-4.44 9.933 9.933 0 015.493-8.882 9.793 9.793 0 014.44-1.052h.585a9.91 9.91 0 019.349 9.349v.584z" stroke="#0D0D0D" stroke-width="1.5" stroke-linecap="round" stroke-linejoin="round"/><path d="M17.72 14.27v1.44a.96.96 0 01-1.044.958 9.488 9.488 0 01-4.138-1.472A9.35 9.35 0 019.66 12.32a9.488 9.488 0 01-1.472-4.157.959.959 0 01.954-1.045h1.439a.959.959 0 01.958.825c.061.46.174.912.336 1.347a.958.958 0 01-.216 1.012l-.608.609a7.672 7.672 0 002.876 2.877l.61-.61a.958.958 0 011.01-.215c.436.162.888.275 1.348.335a.96.96 0 01.825.974z" fill="#0D0D0D"/></svg>