<svg width="26" height="27" fill="none" xmlns="http://www.w3.org/2000/svg"><path d="M12.873 22.072l-.833-.746c-1.788-1.687-3.264-3.134-4.427-4.341-1.164-1.208-2.092-2.282-2.787-3.223-.694-.941-1.176-1.789-1.445-2.543a6.738 6.738 0 01-.404-2.278c0-1.456.482-2.676 1.446-3.662.963-.985 2.157-1.478 3.58-1.478.972 0 1.87.249 2.696.746.824.497 1.549 1.225 2.174 2.184.695-.994 1.445-1.731 2.253-2.21.807-.48 1.68-.72 2.617-.72 1.424 0 2.617.493 3.58 1.478.964.986 1.446 2.207 1.446 3.662 0 .764-.135 1.523-.404 2.278-.269.754-.75 1.602-1.445 2.543-.695.941-1.623 2.015-2.787 3.223-1.163 1.207-2.638 2.654-4.427 4.34l-.833.747zm0-1.598c1.736-1.616 3.164-3.001 4.284-4.155 1.12-1.154 2.005-2.166 2.656-3.036.651-.87 1.111-1.643 1.38-2.317.27-.675.404-1.35.404-2.025 0-1.136-.365-2.077-1.094-2.823C19.774 5.373 18.863 5 17.77 5c-.903 0-1.723.27-2.461.812-.738.542-1.385 1.345-1.94 2.41h-.99c-.555-1.047-1.206-1.846-1.953-2.397C9.68 5.275 8.863 5 7.977 5c-1.094 0-2.005.373-2.734 1.118-.73.746-1.094 1.696-1.094 2.85 0 .657.135 1.323.404 1.998.269.674.729 1.451 1.38 2.33.651.879 1.54 1.89 2.67 3.036a159.909 159.909 0 004.27 4.142z" fill="#fff"/></svg>